<?xml version="1.0" encoding="UTF-8"?>
<svg id="Layer_1" data-name="Layer 1" xmlns="http://www.w3.org/2000/svg" viewBox="0 0 568.09 122.85">
  <defs>
    <style>
      .cls-1 {
        fill: #00ff4e;
      }

      .cls-2 {
        fill: #fff;
      }
    </style>
  </defs>
  <!-- Transparent background - no rect needed -->
  <g>
    <rect class="cls-1" x="91.49" y="88.21" width="4.39" height="4.39"/>
    <rect class="cls-1" x="91.49" y="83.81" width="4.39" height="4.4"/>
    <rect class="cls-1" x="91.49" y="79.41" width="4.39" height="4.4"/>
    <rect class="cls-1" x="91.49" y="75.02" width="4.39" height="4.4"/>
    <rect class="cls-1" x="91.49" y="39.85" width="4.39" height="4.4"/>
    <rect class="cls-1" x="87.09" y="88.21" width="4.4" height="4.39"/>
    <rect class="cls-1" x="87.09" y="83.81" width="4.4" height="4.4"/>
    <rect class="cls-1" x="87.09" y="79.41" width="4.4" height="4.4"/>
    <rect class="cls-1" x="87.09" y="75.02" width="4.4" height="4.4"/>
    <rect class="cls-1" x="87.09" y="70.62" width="4.4" height="4.4"/>
    <rect class="cls-1" x="87.09" y="66.23" width="4.4" height="4.4"/>
    <rect class="cls-1" x="87.09" y="61.83" width="4.4" height="4.4"/>
    <rect class="cls-1" x="87.09" y="57.43" width="4.4" height="4.4"/>
    <rect class="cls-1" x="87.09" y="53.04" width="4.4" height="4.39"/>
    <rect class="cls-1" x="87.09" y="39.85" width="4.4" height="4.4"/>
    <rect class="cls-1" x="87.09" y="22.27" width="4.4" height="4.4"/>
    <rect class="cls-1" x="82.7" y="88.21" width="4.4" height="4.39"/>
    <rect class="cls-1" x="82.7" y="83.81" width="4.4" height="4.4"/>
    <rect class="cls-1" x="82.7" y="79.41" width="4.4" height="4.4"/>
    <rect class="cls-1" x="82.7" y="75.02" width="4.4" height="4.4"/>
    <rect class="cls-1" x="82.7" y="70.62" width="4.4" height="4.4"/>
    <rect class="cls-1" x="82.7" y="66.23" width="4.4" height="4.4"/>
    <rect class="cls-1" x="82.7" y="61.83" width="4.4" height="4.4"/>
    <rect class="cls-1" x="82.7" y="57.43" width="4.4" height="4.4"/>
    <rect class="cls-1" x="82.7" y="53.04" width="4.4" height="4.39"/>
    <rect class="cls-1" x="82.7" y="48.64" width="4.4" height="4.4"/>
    <rect class="cls-1" x="82.7" y="26.66" width="4.4" height="4.4"/>
    <rect class="cls-1" x="78.3" y="88.21" width="4.4" height="4.39"/>
    <rect class="cls-1" x="78.3" y="83.81" width="4.4" height="4.4"/>
    <rect class="cls-1" x="78.3" y="79.41" width="4.4" height="4.4"/>
    <rect class="cls-1" x="78.3" y="75.02" width="4.4" height="4.4"/>
    <rect class="cls-1" x="78.3" y="70.62" width="4.4" height="4.4"/>
    <rect class="cls-1" x="78.3" y="66.23" width="4.4" height="4.4"/>
    <rect class="cls-1" x="78.3" y="61.83" width="4.4" height="4.4"/>
    <rect class="cls-1" x="78.3" y="57.43" width="4.4" height="4.4"/>
    <rect class="cls-1" x="78.3" y="48.64" width="4.4" height="4.4"/>
    <rect class="cls-1" x="78.3" y="44.25" width="4.4" height="4.4"/>
    <rect class="cls-1" x="78.3" y="31.06" width="4.4" height="4.4"/>
    <rect class="cls-1" x="73.9" y="88.21" width="4.4" height="4.39"/>
    <rect class="cls-1" x="73.9" y="83.81" width="4.4" height="4.4"/>
    <rect class="cls-1" x="73.9" y="79.41" width="4.4" height="4.4"/>
    <rect class="cls-1" x="73.9" y="75.02" width="4.4" height="4.4"/>
    <rect class="cls-1" x="73.9" y="70.62" width="4.4" height="4.4"/>
    <rect class="cls-1" x="73.9" y="66.23" width="4.4" height="4.4"/>
    <rect class="cls-1" x="73.9" y="61.83" width="4.4" height="4.4"/>
    <rect class="cls-1" x="73.9" y="57.43" width="4.4" height="4.4"/>
    <rect class="cls-1" x="73.9" y="53.04" width="4.4" height="4.39"/>
    <rect class="cls-1" x="73.9" y="44.25" width="4.4" height="4.4"/>
    <rect class="cls-1" x="73.9" y="39.85" width="4.4" height="4.4"/>
    <rect class="cls-1" x="69.51" y="88.21" width="4.4" height="4.39"/>
    <rect class="cls-1" x="69.51" y="83.81" width="4.4" height="4.4"/>
    <rect class="cls-1" x="69.51" y="79.41" width="4.4" height="4.4"/>
    <rect class="cls-1" x="69.51" y="75.02" width="4.4" height="4.4"/>
    <rect class="cls-1" x="69.51" y="70.62" width="4.4" height="4.4"/>
    <rect class="cls-1" x="69.51" y="66.23" width="4.4" height="4.4"/>
    <rect class="cls-1" x="69.51" y="61.83" width="4.4" height="4.4"/>
    <rect class="cls-1" x="69.51" y="57.43" width="4.4" height="4.4"/>
    <rect class="cls-1" x="69.51" y="53.04" width="4.4" height="4.39"/>
    <rect class="cls-1" x="69.51" y="48.64" width="4.4" height="4.4"/>
    <rect class="cls-1" x="69.51" y="26.66" width="4.4" height="4.4"/>
    <rect class="cls-1" x="69.51" y="22.27" width="4.4" height="4.4"/>
    <rect class="cls-1" x="65.11" y="83.81" width="4.4" height="4.4"/>
    <rect class="cls-1" x="65.11" y="79.41" width="4.4" height="4.4"/>
    <rect class="cls-1" x="65.11" y="75.02" width="4.4" height="4.4"/>
    <rect class="cls-1" x="65.11" y="70.62" width="4.4" height="4.4"/>
    <rect class="cls-1" x="65.11" y="66.23" width="4.4" height="4.4"/>
    <rect class="cls-1" x="65.11" y="61.83" width="4.4" height="4.4"/>
    <rect class="cls-1" x="65.11" y="57.43" width="4.4" height="4.4"/>
    <rect class="cls-1" x="65.11" y="48.64" width="4.4" height="4.4"/>
    <rect class="cls-1" x="65.11" y="44.25" width="4.4" height="4.4"/>
    <rect class="cls-1" x="60.71" y="83.81" width="4.4" height="4.4"/>
    <rect class="cls-1" x="60.71" y="79.41" width="4.4" height="4.4"/>
    <rect class="cls-1" x="60.71" y="75.02" width="4.4" height="4.4"/>
    <rect class="cls-1" x="60.71" y="70.62" width="4.4" height="4.4"/>
    <rect class="cls-1" x="60.71" y="66.23" width="4.4" height="4.4"/>
    <rect class="cls-1" x="60.71" y="61.83" width="4.4" height="4.4"/>
    <rect class="cls-1" x="60.71" y="57.43" width="4.4" height="4.4"/>
    <rect class="cls-1" x="60.71" y="53.04" width="4.4" height="4.39"/>
    <rect class="cls-1" x="60.71" y="44.25" width="4.4" height="4.4"/>
    <rect class="cls-1" x="60.71" y="39.85" width="4.4" height="4.4"/>
    <rect class="cls-1" x="56.32" y="79.41" width="4.39" height="4.4"/>
    <rect class="cls-1" x="56.32" y="75.02" width="4.39" height="4.4"/>
    <rect class="cls-1" x="56.32" y="70.62" width="4.39" height="4.4"/>
    <rect class="cls-1" x="56.32" y="66.23" width="4.39" height="4.4"/>
    <rect class="cls-1" x="56.32" y="61.83" width="4.39" height="4.4"/>
    <rect class="cls-1" x="56.32" y="53.04" width="4.39" height="4.39"/>
    <rect class="cls-1" x="56.32" y="48.64" width="4.39" height="4.4"/>
    <rect class="cls-1" x="56.32" y="39.85" width="4.39" height="4.4"/>
    <rect class="cls-1" x="56.32" y="35.46" width="4.39" height="4.4"/>
    <rect class="cls-1" x="51.92" y="83.81" width="4.4" height="4.4"/>
    <rect class="cls-1" x="51.92" y="75.02" width="4.4" height="4.4"/>
    <rect class="cls-1" x="51.92" y="70.62" width="4.4" height="4.4"/>
    <rect class="cls-1" x="51.92" y="61.83" width="4.4" height="4.4"/>
    <rect class="cls-1" x="51.92" y="57.43" width="4.4" height="4.4"/>
    <rect class="cls-1" x="51.92" y="48.64" width="4.4" height="4.4"/>
    <rect class="cls-1" x="51.92" y="44.25" width="4.4" height="4.4"/>
    <rect class="cls-1" x="51.92" y="35.46" width="4.4" height="4.4"/>
    <rect class="cls-1" x="51.92" y="31.06" width="4.4" height="4.4"/>
    <rect class="cls-1" x="47.53" y="79.41" width="4.4" height="4.4"/>
    <rect class="cls-1" x="47.53" y="70.62" width="4.4" height="4.4"/>
    <rect class="cls-1" x="47.53" y="66.23" width="4.4" height="4.4"/>
    <rect class="cls-1" x="47.53" y="57.43" width="4.4" height="4.4"/>
    <rect class="cls-1" x="47.53" y="53.04" width="4.4" height="4.39"/>
    <rect class="cls-1" x="47.53" y="44.25" width="4.4" height="4.4"/>
    <rect class="cls-1" x="47.53" y="39.85" width="4.4" height="4.4"/>
    <rect class="cls-1" x="47.53" y="31.06" width="4.4" height="4.4"/>
    <rect class="cls-1" x="43.13" y="79.41" width="4.4" height="4.4"/>
    <rect class="cls-1" x="43.13" y="75.02" width="4.4" height="4.4"/>
    <rect class="cls-1" x="43.13" y="66.23" width="4.4" height="4.4"/>
    <rect class="cls-1" x="43.13" y="61.83" width="4.4" height="4.4"/>
    <rect class="cls-1" x="43.13" y="53.04" width="4.4" height="4.39"/>
    <rect class="cls-1" x="43.13" y="48.64" width="4.4" height="4.4"/>
    <rect class="cls-1" x="43.13" y="39.85" width="4.4" height="4.4"/>
    <rect class="cls-1" x="43.13" y="35.46" width="4.4" height="4.4"/>
    <rect class="cls-1" x="38.74" y="75.02" width="4.4" height="4.4"/>
    <rect class="cls-1" x="38.74" y="70.62" width="4.4" height="4.4"/>
    <rect class="cls-1" x="38.74" y="61.83" width="4.4" height="4.4"/>
    <rect class="cls-1" x="38.74" y="57.43" width="4.4" height="4.4"/>
    <rect class="cls-1" x="38.74" y="48.64" width="4.4" height="4.4"/>
    <rect class="cls-1" x="38.74" y="44.25" width="4.4" height="4.4"/>
    <rect class="cls-1" x="38.74" y="35.46" width="4.4" height="4.4"/>
    <rect class="cls-1" x="38.74" y="26.66" width="4.4" height="4.4"/>
    <rect class="cls-1" x="34.34" y="70.62" width="4.4" height="4.4"/>
    <rect class="cls-1" x="34.34" y="66.23" width="4.4" height="4.4"/>
    <rect class="cls-1" x="34.34" y="57.43" width="4.4" height="4.4"/>
    <rect class="cls-1" x="34.34" y="53.04" width="4.4" height="4.39"/>
    <rect class="cls-1" x="34.34" y="44.25" width="4.4" height="4.4"/>
    <rect class="cls-1" x="34.34" y="39.85" width="4.4" height="4.4"/>
    <rect class="cls-1" x="34.34" y="26.66" width="4.4" height="4.4"/>
    <rect class="cls-1" x="29.94" y="66.23" width="4.4" height="4.4"/>
    <rect class="cls-1" x="29.94" y="61.83" width="4.4" height="4.4"/>
    <rect class="cls-1" x="29.94" y="48.64" width="4.4" height="4.4"/>
    <rect class="cls-1" x="29.94" y="35.46" width="4.4" height="4.4"/>
    <rect class="cls-1" x="29.94" y="31.06" width="4.4" height="4.4"/>
    <rect class="cls-1" x="25.55" y="61.83" width="4.4" height="4.4"/>
    <rect class="cls-1" x="25.55" y="57.43" width="4.4" height="4.4"/>
    <rect class="cls-1" x="25.55" y="48.64" width="4.4" height="4.4"/>
    <rect class="cls-1" x="25.55" y="44.25" width="4.4" height="4.4"/>
    <rect class="cls-1" x="25.55" y="35.46" width="4.4" height="4.4"/>
    <rect class="cls-1" x="25.55" y="31.06" width="4.4" height="4.4"/>
  </g>
  <path class="cls-2" d="M274.24,29.82h6.15v54.98h-6.15V29.82Z"/>
  <path class="cls-2" d="M297.62,85.88c-3.95,0-7.09-1.04-9.42-3.11-2.33-2.08-3.5-4.75-3.5-8.04,0-3.02.69-5.38,2.08-7.07,1.38-1.69,3.33-3,5.84-3.92,2.51-.92,5.46-1.69,8.84-2.31,3.33-.62,5.79-1.27,7.38-1.96s2.38-1.99,2.38-3.88c0-1.54-.55-2.88-1.65-4.04-1.1-1.15-3.27-1.73-6.5-1.73-3.74,0-6.29.6-7.65,1.81-1.36,1.21-2.14,3.24-2.34,6.11h-6.46c.15-2.51.81-4.77,1.96-6.77s2.93-3.59,5.34-4.77c2.41-1.18,5.54-1.77,9.38-1.77,2.46,0,4.74.38,6.84,1.15,2.1.77,3.81,2.08,5.11,3.92,1.31,1.84,1.96,4.38,1.96,7.61v18.84c0,1.54.14,2.69.42,3.46.28.77.81,1.15,1.58,1.15h.38c.15,0,.33-.03.54-.08v4.31c-.51.1-1,.19-1.46.27-.46.08-.97.12-1.54.12-1.69,0-3.04-.42-4.04-1.27-1-.85-1.6-2.47-1.81-4.88h-.15c-1.28,2.1-3.04,3.77-5.27,5-2.23,1.23-4.99,1.84-8.27,1.84ZM298.23,80.49c3.69,0,6.78-.87,9.26-2.61,2.49-1.74,3.73-4.49,3.73-8.23v-6.23c-.56.62-1.72,1.18-3.46,1.69-1.74.51-3.67.97-5.77,1.38-3.79.82-6.55,1.78-8.27,2.88-1.72,1.1-2.58,2.78-2.58,5.04,0,1.9.55,3.38,1.65,4.46,1.1,1.08,2.91,1.62,5.42,1.62Z"/>
  <path class="cls-2" d="M329.14,71.42c0,2.51.65,4.65,1.96,6.42,1.31,1.77,3.5,2.65,6.57,2.65,3.49,0,6.28-.99,8.38-2.96,2.1-1.97,3.15-4.47,3.15-7.5v-24.45h6.15v39.21h-6.15v-4.69h-.15c-1.03,1.38-2.6,2.69-4.73,3.92-2.13,1.23-4.86,1.84-8.19,1.84-2.36,0-4.54-.45-6.54-1.35-2-.9-3.6-2.31-4.81-4.23-1.21-1.92-1.81-4.37-1.81-7.34v-27.37h6.15v25.83Z"/>
  <path class="cls-2" d="M377.58,61.5c1.74.41,3.5.87,5.27,1.38,1.77.51,3.38,1.22,4.84,2.11,1.46.9,2.63,2.05,3.5,3.46.87,1.41,1.31,3.19,1.31,5.34,0,3.69-1.37,6.63-4.11,8.8-2.74,2.18-6.63,3.27-11.65,3.27-5.64,0-9.96-1.35-12.96-4.04-3-2.69-4.55-6.06-4.65-10.11h6.46c.1,1.59.51,3.05,1.23,4.38.72,1.33,1.88,2.4,3.5,3.19,1.62.8,3.75,1.19,6.42,1.19,2.51,0,4.43-.33,5.77-1,1.33-.67,2.25-1.5,2.77-2.5.51-1,.77-1.99.77-2.96,0-1.79-.54-3.13-1.61-4-1.08-.87-2.41-1.5-4-1.88-1.59-.38-3.2-.76-4.84-1.12-1.69-.36-3.42-.78-5.19-1.27-1.77-.49-3.38-1.14-4.84-1.96-1.46-.82-2.64-1.9-3.54-3.23-.9-1.33-1.35-3.02-1.35-5.08,0-3.33,1.26-6,3.77-8,2.51-2,6.02-3,10.53-3,3.38,0,6.23.55,8.53,1.65,2.31,1.1,4.08,2.59,5.31,4.46,1.23,1.87,1.95,3.93,2.15,6.19h-6.46c-.21-1.03-.58-2.06-1.12-3.11-.54-1.05-1.45-1.95-2.73-2.69-1.28-.74-3.15-1.12-5.61-1.12-2.77,0-4.78.5-6.04,1.5-1.26,1-1.88,2.29-1.88,3.88,0,1.49.49,2.6,1.46,3.34.97.74,2.27,1.29,3.88,1.65,1.61.36,3.32.77,5.11,1.23Z"/>
  <path class="cls-2" d="M413.18,85.95c-4.1,0-7.57-.91-10.42-2.73s-5-4.31-6.46-7.46-2.19-6.7-2.19-10.65c0-4.2.78-7.84,2.34-10.92,1.56-3.08,3.78-5.47,6.65-7.19,2.87-1.72,6.23-2.58,10.07-2.58s7.11.81,9.8,2.42c2.69,1.62,4.75,3.87,6.19,6.77,1.43,2.9,2.15,6.27,2.15,10.11v1.73c0,.59-.03,1.04-.08,1.35h-30.68c.05,2.31.54,4.52,1.46,6.65s2.31,3.86,4.15,5.19,1.84,1.33,4.2,2,7.07,2,2.56,0,4.63-.47,6.19-1.42,1.56-.95,2.75-2.04,3.58-3.27.82-1.23,1.33-2.31,1.54-3.23h6.23c-.67,2.41-1.74,4.63-3.23,6.65-1.49,2.03-3.41,3.63-5.77,4.81-2.36,1.18-5.23,1.77-8.61,1.77ZM412.87,49.74c-2.26,0-4.29.5-6.11,1.5-1.82,1-3.27,2.37-4.34,4.11-1.08,1.74-1.69,3.77-1.85,6.07h24.22c0-2.15-.49-4.11-1.46-5.88-.97-1.77-2.35-3.18-4.11-4.23-1.77-1.05-3.88-1.58-6.34-1.58Z"/>
  <rect class="cls-1" x="443.46" y="76.66" width="27.29" height="7.79"/>
  <rect class="cls-1" x="435.67" y="29.85" width="7.79" height="46.81"/>
  <path class="cls-1" d="M481.09,84.44v-3.89h-3.89v-3.89h-3.89v-7.81h3.89v-3.89h7.78v-3.89h15.62v-3.92h-3.92v-3.89h-11.7v3.89h-11.68v-3.89h3.89v-3.89h3.89v-3.89h19.51v3.89h3.89v3.89h3.89v31.19h-7.78v-3.89h-3.92v3.89h-15.59ZM496.69,76.66v-3.89h3.92v-7.81h-3.92v3.89h-13.65v7.81h13.65Z"/>
  <path class="cls-1" d="M512.79,84.44V29.85h7.78v19.51h3.89v-3.89h15.62v3.89h3.89v3.89h3.89v23.41h-3.89v3.89h-3.89v3.89h-15.62v-3.89h-3.89v3.89h-7.78ZM536.16,76.66v-3.89h3.92v-15.62h-3.92v-3.89h-11.7v3.89h-3.89v15.62h3.89v3.89h11.7Z"/>
  <path class="cls-2" d="M146.31,84.92v-11.85h3.95v-11.87h3.95v-11.87h3.95v-11.87h3.98v-7.93h11.87v7.93h3.95v11.87h3.95v11.87h3.95v11.87h3.98v11.85h-7.93v-11.85h-27.7v11.85h-7.9ZM177.95,65.15v-3.95h-3.95v-11.87h-3.98v-7.93h-3.95v7.93h-3.95v11.87h-3.98v3.95h19.8Z"/>
  <path class="cls-2" d="M194.29,100.74v-55.37h7.9v3.95h3.95v-3.95h15.85v3.95h3.95v3.95h3.95v23.75h-3.95v3.95h-3.95v3.95h-15.85v-3.95h-3.95v19.77h-7.9ZM218.01,77.02v-3.95h3.98v-15.85h-3.98v-3.95h-11.87v3.95h-3.95v15.85h3.95v3.95h11.87Z"/>
  <path class="cls-2" d="M234.34,100.74v-55.37h7.9v3.95h3.95v-3.95h15.85v3.95h3.95v3.95h3.95v23.75h-3.95v3.95h-3.95v3.95h-15.85v-3.95h-3.95v19.77h-7.9ZM258.06,77.02v-3.95h3.98v-15.85h-3.98v-3.95h-11.87v3.95h-3.95v15.85h3.95v3.95h11.87Z"/>
</svg>