<?xml version="1.0" encoding="UTF-8"?>
<svg id="Layer_1" data-name="Layer 1" xmlns="http://www.w3.org/2000/svg" viewBox="0 0 199.42 293.91">
  <defs>
    <style>
      .cls-1 {
        fill: #00ff4e;
      }
    </style>
  </defs>
  <g>
    <rect class="cls-1" x="0" y="57.2" width="14.28" height="14.32" transform="translate(14.28 128.71) rotate(-180)"/>
    <rect class="cls-1" x="14.28" y="57.2" width="14.32" height="14.32" transform="translate(42.88 128.71) rotate(-180)"/>
    <rect class="cls-1" x="14.28" y="0" width="14.32" height="14.32" transform="translate(42.88 14.32) rotate(-180)"/>
    <rect class="cls-1" x="28.57" y="14.28" width="14.32" height="14.32" transform="translate(71.45 42.88) rotate(-180)"/>
    <rect class="cls-1" x="42.88" y="28.6" width="14.32" height="14.32" transform="translate(100.08 71.51) rotate(-180)"/>
    <rect class="cls-1" x="71.48" y="14.28" width="14.32" height="14.32" transform="translate(157.28 42.88) rotate(-180)"/>
    <rect class="cls-1" x="71.48" y="0" width="14.32" height="14.32" transform="translate(157.28 14.32) rotate(-180)"/>
  </g>
  <g>
    <polygon points="75.31 215.33 75.31 235.12 88.2 235.12 88.2 248.48 101.65 248.48 101.65 235.25 115.1 235.25 115.1 215.53 121.38 215.53 121.38 209.04 134.21 209.04 134.21 202.47 140.71 202.47 140.71 195.94 147.35 195.94 147.35 188.74 153.94 188.74 153.94 150.1 147.43 150.1 147.43 149.82 147.43 143.75 147.43 136.83 140.99 136.83 140.99 130.76 128.02 130.76 128.02 124.26 121.35 124.26 121.35 117.76 108.03 117.76 108.03 124.26 104.49 124.26 95.39 124.26 94.93 124.26 94.93 113.77 101.59 113.77 101.59 108.69 108.71 108.69 108.71 104.32 133.18 104.32 133.18 91.33 103.11 91.33 103.11 95.7 95.39 95.7 95.39 100.78 88.26 100.78 88.26 111.27 81.6 111.27 81.6 124.26 75.57 124.26 75.57 150.24 82.06 150.24 82.06 163.23 88.27 163.23 88.28 170.3 108.18 170.28 108.18 175.78 101.56 175.79 101.57 181.9 90.64 181.91 90.66 195.58 103.86 195.57 103.85 189.46 114.78 189.45 114.76 176.69 121.39 176.69 121.37 163.02 114.68 163.02 114.67 156.6 95.39 156.62 95.39 150.24 95.39 148.08 95.39 137.25 104.49 137.25 114.69 137.25 117.82 137.25 121.35 137.25 121.35 143.75 134.41 143.75 134.41 149.82 134.41 156.74 140.92 156.74 140.92 182.97 134.33 182.97 134.33 189.5 127.69 189.5 127.69 196.07 114.78 196.07 114.78 202.56 107.93 202.56 107.93 215.19 101.65 215.19 101.65 228.69 88.76 228.69 88.76 215.33 75.31 215.33"/>
    <polygon points="199.42 117.68 193.48 117.68 193.48 104.55 186.78 104.55 186.78 91.37 180.09 91.37 180.09 84.5 173.4 84.5 173.4 78.05 167.06 78.05 167.06 71.39 154 71.39 154 65.18 140.85 65.18 140.85 58.52 95.03 58.52 95.03 65.18 81.88 65.18 81.88 71.84 75.57 71.84 75.57 77.9 69.03 77.9 69.03 84.82 62.5 84.82 62.5 91.18 55.97 91.18 55.97 97.25 49.43 97.25 49.43 110.66 42.9 110.66 42.9 123.94 55.97 123.94 55.97 117.3 62.5 117.3 62.5 104.47 69.03 104.47 69.03 98.1 75.57 98.1 75.57 91.18 82.1 91.18 82.1 85.16 88.63 85.16 88.63 78.5 108.19 78.5 108.19 71.84 127.71 71.84 127.71 78.5 147.38 78.5 147.38 84.71 160.02 84.71 160.02 91.37 166.71 91.37 166.71 97.82 173.4 97.82 173.4 111.42 180.09 111.42 180.09 130.9 186.03 130.9 186.03 150.1 179.98 150.1 179.98 169.94 173.28 169.94 173.28 183.17 166.91 183.17 166.91 189.6 160.41 189.6 160.41 202.54 153.9 202.54 153.9 215.53 147.4 215.53 147.4 228.54 140.84 228.54 140.84 254.98 134.45 254.98 134.45 267.85 127.94 267.85 127.94 274.44 114.44 274.44 114.44 280.74 101.71 280.74 101.71 274.44 88.51 274.44 88.51 267.95 82.03 267.95 82.03 261.46 75.57 261.46 75.57 254.97 62.58 254.97 62.58 267.95 69.08 267.95 69.08 274.44 75.56 274.44 75.56 281.12 82.03 281.12 82.03 287.61 95.07 287.61 95.07 293.91 121.38 293.91 121.38 287.61 134.41 287.61 134.41 281.03 140.95 281.03 140.95 274.44 147.46 274.44 147.46 261.45 153.85 261.45 153.85 235.02 160.41 235.02 160.41 222.02 166.91 222.02 166.91 209.08 173.41 209.08 173.41 195.92 180.29 195.92 180.29 183.36 186.67 183.36 186.67 176.65 193.36 176.65 193.36 156.62 199.42 156.62 199.42 117.68"/>
  </g>
</svg>