<?xml version="1.0" encoding="UTF-8"?>
<svg id="Layer_1" data-name="Layer 1" xmlns="http://www.w3.org/2000/svg" viewBox="0 0 193.29 293.91">
  <defs>
    <style>
      .cls-1 {
        fill: #fff;
      }

      .cls-2 {
        fill: #131826;
      }
    </style>
  </defs>
  <g>
    <rect class="cls-1" x="0" y="57.2" width="14.28" height="14.32" transform="translate(14.28 128.71) rotate(-180)"/>
    <rect class="cls-1" x="14.28" y="57.2" width="14.32" height="14.32" transform="translate(42.88 128.71) rotate(-180)"/>
    <rect class="cls-1" x="14.28" y="0" width="14.32" height="14.32" transform="translate(42.88 14.32) rotate(-180)"/>
    <rect class="cls-1" x="28.57" y="14.28" width="14.32" height="14.32" transform="translate(71.45 42.88) rotate(-180)"/>
    <rect class="cls-1" x="42.88" y="28.6" width="14.32" height="14.32" transform="translate(100.08 71.51) rotate(-180)"/>
    <rect class="cls-1" x="71.48" y="14.28" width="14.32" height="14.32" transform="translate(157.28 42.88) rotate(-180)"/>
    <rect class="cls-1" x="71.48" y="0" width="14.32" height="14.32" transform="translate(157.28 14.32) rotate(-180)"/>
  </g>
  <g>
    <polygon class="cls-2" points="69.19 215.33 69.19 235.12 82.08 235.12 82.08 248.48 95.53 248.48 95.53 235.25 108.98 235.25 108.98 215.53 115.26 215.53 115.26 209.04 128.09 209.04 128.09 202.47 134.59 202.47 134.59 195.94 141.23 195.94 141.23 188.74 147.82 188.74 147.82 150.1 141.31 150.1 141.31 149.82 141.31 143.75 141.31 136.83 134.87 136.83 134.87 130.76 121.89 130.76 121.89 124.26 115.23 124.26 115.23 117.76 101.9 117.76 101.9 124.26 98.37 124.26 89.27 124.26 88.81 124.26 88.81 113.77 95.47 113.77 95.47 108.69 102.59 108.69 102.59 104.32 127.05 104.32 127.05 91.33 96.98 91.33 96.98 95.7 89.27 95.7 89.27 100.78 82.14 100.78 82.14 111.27 75.48 111.27 75.48 124.26 69.45 124.26 69.45 150.24 75.94 150.24 75.94 163.23 82.15 163.23 82.16 170.3 102.06 170.28 102.06 175.78 95.44 175.79 95.44 181.9 84.52 181.91 84.54 195.58 97.74 195.57 97.73 189.46 108.66 189.45 108.64 176.69 115.27 176.69 115.25 163.02 108.56 163.02 108.55 156.6 89.27 156.62 89.27 150.24 89.27 148.08 89.27 137.25 98.37 137.25 108.57 137.25 111.7 137.25 115.23 137.25 115.23 143.75 128.29 143.75 128.29 149.82 128.29 156.74 134.8 156.74 134.8 182.97 128.21 182.97 128.21 189.5 121.57 189.5 121.57 196.07 108.66 196.07 108.66 202.56 101.81 202.56 101.81 215.19 95.53 215.19 95.53 228.69 82.64 228.69 82.64 215.33 69.19 215.33"/>
    <polygon class="cls-2" points="193.29 117.68 187.35 117.68 187.35 104.55 180.66 104.55 180.66 91.37 173.97 91.37 173.97 84.5 167.28 84.5 167.28 78.05 160.94 78.05 160.94 71.39 147.88 71.39 147.88 65.18 134.73 65.18 134.73 58.52 88.91 58.52 88.91 65.18 75.76 65.18 75.76 71.84 69.45 71.84 69.45 77.9 62.91 77.9 62.91 84.82 56.38 84.82 56.38 91.18 49.84 91.18 49.84 97.25 43.31 97.25 43.31 110.66 36.78 110.66 36.78 123.94 49.84 123.94 49.84 117.3 56.38 117.3 56.38 104.47 62.91 104.47 62.91 98.1 69.45 98.1 69.45 91.18 75.98 91.18 75.98 85.16 82.51 85.16 82.51 78.5 102.07 78.5 102.07 71.84 121.58 71.84 121.58 78.5 141.26 78.5 141.26 84.71 153.9 84.71 153.9 91.37 160.59 91.37 160.59 97.82 167.28 97.82 167.28 111.42 173.97 111.42 173.97 130.9 179.91 130.9 179.91 150.1 173.85 150.1 173.85 169.94 167.16 169.94 167.16 183.17 160.79 183.17 160.79 189.6 154.28 189.6 154.28 202.54 147.78 202.54 147.78 215.53 141.28 215.53 141.28 228.54 134.72 228.54 134.72 254.98 128.33 254.98 128.33 267.85 121.82 267.85 121.82 274.44 108.32 274.44 108.32 280.74 95.58 280.74 95.58 274.44 82.39 274.44 82.39 267.95 75.91 267.95 75.91 261.46 69.45 261.46 69.45 254.97 56.46 254.97 56.46 267.95 62.95 267.95 62.95 274.44 69.43 274.44 69.43 281.12 75.91 281.12 75.91 287.61 88.95 287.61 88.95 293.91 115.26 293.91 115.26 287.61 128.29 287.61 128.29 281.03 134.83 281.03 134.83 274.44 141.33 274.44 141.33 261.45 147.73 261.45 147.73 235.02 154.29 235.02 154.29 222.02 160.79 222.02 160.79 209.08 167.29 209.08 167.29 195.92 174.17 195.92 174.17 183.36 180.55 183.36 180.55 176.65 187.24 176.65 187.24 156.62 193.29 156.62 193.29 117.68"/>
  </g>
</svg>